<svg width="73" height="73" viewBox="0 0 73 73" fill="none" xmlns="http://www.w3.org/2000/svg">
<path d="M0 36.0341C0 16.133 16.133 0 36.0341 0C55.9351 0 72.0681 16.133 72.0681 36.0341C72.0681 55.9351 55.9351 72.0681 36.0341 72.0681C16.133 72.0681 0 55.9351 0 36.0341Z" fill="#E5E7EB"/>
<path d="M28.3853 47.5072C28.3853 48.0143 28.5868 48.5007 28.9454 48.8593C29.304 49.2179 29.7904 49.4194 30.2975 49.4194H41.7706C42.2777 49.4194 42.7641 49.2179 43.1227 48.8593C43.4813 48.5007 43.6828 48.0143 43.6828 47.5072C43.6828 47 43.4813 46.5137 43.1227 46.1551C42.7641 45.7965 42.2777 45.595 41.7706 45.595H30.2975C29.7904 45.595 29.304 45.7965 28.9454 46.1551C28.5868 46.5137 28.3853 47 28.3853 47.5072ZM15.0001 24.5609V27.1615C15.0086 28.9511 15.6914 30.6717 16.9122 31.9802V47.5072C16.9122 48.7627 17.1595 50.006 17.64 51.166C18.1205 52.326 18.8248 53.38 19.7126 54.2678C20.6004 55.1556 21.6544 55.8599 22.8143 56.3403C23.9743 56.8208 25.2176 57.0681 26.4731 57.0681H45.595C48.1307 57.0681 50.5625 56.0608 52.3555 54.2678C54.1486 52.4748 55.1559 50.0429 55.1559 47.5072V31.9993C56.3732 30.6809 57.055 28.9559 57.068 27.1615V24.5609C57.0705 24.2756 57.0049 23.9937 56.8768 23.7387L54.2954 18.289C53.8318 17.3063 53.0986 16.4754 52.1812 15.8932C51.2638 15.3109 50.1999 15.0012 49.1134 15H22.9547C21.8682 15.0012 20.8043 15.3109 19.8869 15.8932C18.9695 16.4754 18.2363 17.3063 17.7727 18.289L15.1913 23.7387C15.0632 23.9937 14.9976 24.2756 15.0001 24.5609ZM53.2437 27.1615C53.2764 27.9077 53.0332 28.6398 52.5606 29.2182C52.088 29.7966 51.4191 30.1808 50.6814 30.2975C50.2782 30.3439 49.8697 30.303 49.4837 30.1776C49.0976 30.0523 48.7431 29.8453 48.4441 29.5709C48.1473 29.2989 47.9106 28.9679 47.7492 28.5991C47.5878 28.2303 47.5054 27.8318 47.5071 27.4292C47.5071 26.9221 47.3057 26.4357 46.9471 26.0771C46.5885 25.7185 46.1021 25.517 45.595 25.517C45.0878 25.517 44.6014 25.7185 44.2428 26.0771C43.8842 26.4357 43.6828 26.9221 43.6828 27.4292C43.6828 28.1899 43.3806 28.9195 42.8427 29.4574C42.3048 29.9953 41.5752 30.2975 40.8145 30.2975C40.0538 30.2975 39.3242 29.9953 38.7863 29.4574C38.2484 28.9195 37.9462 28.1899 37.9462 27.4292C37.9462 26.9221 37.7448 26.4357 37.3862 26.0771C37.0276 25.7185 36.5412 25.517 36.0341 25.517C35.5269 25.517 35.0405 25.7185 34.6819 26.0771C34.3233 26.4357 34.1219 26.9221 34.1219 27.4292C34.1219 28.1899 33.8197 28.9195 33.2818 29.4574C32.7439 29.9953 32.0143 30.2975 31.2536 30.2975C30.4929 30.2975 29.7633 29.9953 29.2254 29.4574C28.6875 28.9195 28.3853 28.1899 28.3853 27.4292C28.3853 26.9221 28.1839 26.4357 27.8253 26.0771C27.4667 25.7185 26.9803 25.517 26.4731 25.517C25.966 25.517 25.4796 25.7185 25.121 26.0771C24.7624 26.4357 24.561 26.9221 24.561 27.4292C24.5633 27.8331 24.4803 28.2329 24.3174 28.6024C24.1545 28.972 23.9154 29.303 23.6158 29.5737C23.3161 29.8445 22.9627 30.0489 22.5785 30.1737C22.1944 30.2984 21.7883 30.3406 21.3867 30.2975C20.649 30.1808 19.9801 29.7966 19.5075 29.2182C19.0349 28.6398 18.7918 27.9077 18.8244 27.1615V24.9816L21.2338 19.9143C21.3888 19.5889 21.6325 19.3139 21.937 19.1211C22.2415 18.9283 22.5943 18.8254 22.9547 18.8244H49.1134C49.4738 18.8254 49.8266 18.9283 50.1311 19.1211C50.4356 19.3139 50.6794 19.5889 50.8343 19.9143L53.2437 24.9816V27.1615ZM20.7366 34.1219C20.8256 34.1308 20.9153 34.1308 21.0043 34.1219C21.9376 34.2181 22.8808 34.1181 23.7732 33.8283C24.6656 33.5385 25.4876 33.0653 26.1863 32.4391L26.4731 32.2097C27.0963 32.8457 27.8401 33.3509 28.6609 33.6959C29.4818 34.0408 30.3632 34.2185 31.2536 34.2185C32.144 34.2185 33.0254 34.0408 33.8463 33.6959C34.6671 33.3509 35.4109 32.8457 36.0341 32.2097C36.6572 32.8457 37.401 33.3509 38.2218 33.6959C39.0427 34.0408 39.9241 34.2185 40.8145 34.2185C41.7049 34.2185 42.5863 34.0408 43.4072 33.6959C44.228 33.3509 44.9718 32.8457 45.595 32.2097L45.8818 32.4965C46.5853 33.1125 47.4094 33.5752 48.3016 33.855C49.1938 34.1349 50.1345 34.2258 51.0638 34.1219C51.1528 34.1308 51.2425 34.1308 51.3315 34.1219V47.5072C51.3315 49.0286 50.7271 50.4877 49.6513 51.5635C48.5755 52.6394 47.1164 53.2437 45.595 53.2437H26.4731C24.9517 53.2437 23.4926 52.6394 22.4168 51.5635C21.341 50.4877 20.7366 49.0286 20.7366 47.5072V34.1219Z" fill="#B6B8BF"/>
</svg>
